<svg width="24" height="24" viewBox="0 0 24 24" fill="none" xmlns="http://www.w3.org/2000/svg">
<g id="Iconly/Bold/More Square">
<g id="More Square">
<path id="More Square_2" fill-rule="evenodd" clip-rule="evenodd" d="M22.0001 7.67018L22.0001 16.3402C22.0001 19.7302 19.6201 22.0002 16.0801 22.0002L7.91011 22.0002C4.38011 22.0002 2.00011 19.7302 2.00011 16.3402L2.00011 7.67018C2.00011 4.28018 4.38011 2.00018 7.91011 2.00018L16.0801 2.00018C19.6201 2.00018 22.0001 4.28018 22.0001 7.67018ZM10.8001 7.52018C10.8001 6.86018 11.3401 6.32018 12.0001 6.32018C12.6601 6.32018 13.1991 6.86018 13.1991 7.52018C13.1991 8.18018 12.6601 8.72018 12.0001 8.72018C11.3401 8.72018 10.8001 8.18018 10.8001 7.52018ZM12.0001 10.8002C11.3401 10.8002 10.8001 11.3402 10.8001 12.0002C10.8001 12.6602 11.3401 13.2002 12.0001 13.2002C12.6601 13.2002 13.1991 12.6602 13.1991 12.0002C13.1991 11.3402 12.6601 10.8002 12.0001 10.8002ZM12.0001 15.2802C11.3401 15.2802 10.8001 15.8202 10.8001 16.4802C10.8001 17.1402 11.3401 17.6702 12.0001 17.6702C12.6601 17.6702 13.1991 17.1402 13.1991 16.4802C13.1991 15.8202 12.6601 15.2802 12.0001 15.2802Z" fill="white"/>
</g>
</g>
</svg>
