<svg width="74" height="24" viewBox="0 0 74 24" fill="none" xmlns="http://www.w3.org/2000/svg">
<path d="M34.672 20C34.448 20 34.28 19.96 34.168 19.88C34.056 19.784 33.944 19.624 33.832 19.4L29.008 9.152C28.96 9.056 28.936 8.96 28.936 8.864C28.936 8.752 28.968 8.664 29.032 8.6C29.112 8.52 29.216 8.48 29.344 8.48H31.336C31.544 8.48 31.696 8.52 31.792 8.6C31.888 8.664 31.976 8.792 32.056 8.984L35.272 16.472L38.488 8.984C38.568 8.808 38.656 8.68 38.752 8.6C38.864 8.52 39.024 8.48 39.232 8.48H41.224C41.352 8.48 41.448 8.52 41.512 8.6C41.592 8.664 41.632 8.752 41.632 8.864C41.632 8.96 41.608 9.056 41.56 9.152L36.736 19.4C36.624 19.624 36.512 19.784 36.4 19.88C36.288 19.96 36.12 20 35.896 20H34.672ZM46.3941 6.488C46.0101 6.488 45.7141 6.376 45.5061 6.152C45.2981 5.928 45.1941 5.656 45.1941 5.336V4.832C45.1941 4.512 45.2981 4.24 45.5061 4.016C45.7141 3.792 46.0101 3.68 46.3941 3.68H47.4261C47.8101 3.68 48.1061 3.792 48.3141 4.016C48.5381 4.24 48.6501 4.512 48.6501 4.832V5.336C48.6501 5.656 48.5381 5.928 48.3141 6.152C48.1061 6.376 47.8101 6.488 47.4261 6.488H46.3941ZM46.2981 20C45.9781 20 45.7461 19.928 45.6021 19.784C45.4581 19.64 45.3861 19.424 45.3861 19.136V9.368C45.3861 9.064 45.4581 8.84 45.6021 8.696C45.7461 8.552 45.9781 8.48 46.2981 8.48H47.5461C47.8661 8.48 48.0981 8.552 48.2421 8.696C48.3861 8.84 48.4581 9.064 48.4581 9.368V19.136C48.4581 19.424 48.3861 19.64 48.2421 19.784C48.1141 19.928 47.8821 20 47.5461 20H46.2981ZM59.0114 20.36C54.4674 20.36 52.1954 18.312 52.1954 14.216C52.1954 13.016 52.4274 11.96 52.8914 11.048C53.3554 10.12 54.0194 9.4 54.8834 8.888C55.7634 8.376 56.7954 8.12 57.9794 8.12C59.6594 8.12 60.8754 8.496 61.6274 9.248V4.568C61.6274 4.264 61.6994 4.04 61.8434 3.896C61.9874 3.752 62.2194 3.68 62.5394 3.68H63.7394C64.0594 3.68 64.2914 3.752 64.4354 3.896C64.5794 4.04 64.6514 4.264 64.6514 4.568V18.8C64.0434 19.248 63.2274 19.624 62.2034 19.928C61.1794 20.216 60.1154 20.36 59.0114 20.36ZM59.0834 18.176C60.1554 18.176 61.0034 17.984 61.6274 17.6V12.704C61.6274 11.92 61.3554 11.328 60.8114 10.928C60.2674 10.528 59.5634 10.328 58.6994 10.328C57.5314 10.328 56.6594 10.68 56.0834 11.384C55.5074 12.088 55.2194 13.056 55.2194 14.288C55.2194 15.664 55.5394 16.656 56.1794 17.264C56.8194 17.872 57.7874 18.176 59.0834 18.176ZM69.8879 6.488C69.5039 6.488 69.2079 6.376 68.9999 6.152C68.7919 5.928 68.6879 5.656 68.6879 5.336V4.832C68.6879 4.512 68.7919 4.24 68.9999 4.016C69.2079 3.792 69.5039 3.68 69.8879 3.68H70.9199C71.3039 3.68 71.5999 3.792 71.8079 4.016C72.0319 4.24 72.1439 4.512 72.1439 4.832V5.336C72.1439 5.656 72.0319 5.928 71.8079 6.152C71.5999 6.376 71.3039 6.488 70.9199 6.488H69.8879ZM69.7919 20C69.4719 20 69.2399 19.928 69.0959 19.784C68.9519 19.64 68.8799 19.424 68.8799 19.136V9.368C68.8799 9.064 68.9519 8.84 69.0959 8.696C69.2399 8.552 69.4719 8.48 69.7919 8.48H71.0399C71.3599 8.48 71.5919 8.552 71.7359 8.696C71.8799 8.84 71.9519 9.064 71.9519 9.368V19.136C71.9519 19.424 71.8799 19.64 71.7359 19.784C71.6079 19.928 71.3759 20 71.0399 20H69.7919Z" fill="#F5F5F5"/>
<path fill-rule="evenodd" clip-rule="evenodd" d="M12 2.5C17.2459 2.5 21.5 6.75315 21.5 12C21.5 17.2469 17.2459 21.5 12 21.5C6.75315 21.5 2.5 17.2469 2.5 12C2.5 6.75315 6.75315 2.5 12 2.5Z" stroke="white" stroke-width="1.5" stroke-linecap="round" stroke-linejoin="round"/>
<path fill-rule="evenodd" clip-rule="evenodd" d="M15 11.9951C15 11.184 10.8425 8.58912 10.3709 9.0557C9.8993 9.52228 9.85395 14.424 10.3709 14.9346C10.8879 15.4469 15 12.8063 15 11.9951Z" stroke="white" stroke-width="1.5" stroke-linecap="round" stroke-linejoin="round"/>
</svg>
