<svg width="74" height="38" viewBox="0 0 74 38" fill="none" xmlns="http://www.w3.org/2000/svg">
<path d="M34.672 28C34.448 28 34.28 27.96 34.168 27.88C34.056 27.784 33.944 27.624 33.832 27.4L29.008 17.152C28.96 17.056 28.936 16.96 28.936 16.864C28.936 16.752 28.968 16.664 29.032 16.6C29.112 16.52 29.216 16.48 29.344 16.48H31.336C31.544 16.48 31.696 16.52 31.792 16.6C31.888 16.664 31.976 16.792 32.056 16.984L35.272 24.472L38.488 16.984C38.568 16.808 38.656 16.68 38.752 16.6C38.864 16.52 39.024 16.48 39.232 16.48H41.224C41.352 16.48 41.448 16.52 41.512 16.6C41.592 16.664 41.632 16.752 41.632 16.864C41.632 16.96 41.608 17.056 41.56 17.152L36.736 27.4C36.624 27.624 36.512 27.784 36.4 27.88C36.288 27.96 36.12 28 35.896 28H34.672ZM46.3941 14.488C46.0101 14.488 45.7141 14.376 45.5061 14.152C45.2981 13.928 45.1941 13.656 45.1941 13.336V12.832C45.1941 12.512 45.2981 12.24 45.5061 12.016C45.7141 11.792 46.0101 11.68 46.3941 11.68H47.4261C47.8101 11.68 48.1061 11.792 48.3141 12.016C48.5381 12.24 48.6501 12.512 48.6501 12.832V13.336C48.6501 13.656 48.5381 13.928 48.3141 14.152C48.1061 14.376 47.8101 14.488 47.4261 14.488H46.3941ZM46.2981 28C45.9781 28 45.7461 27.928 45.6021 27.784C45.4581 27.64 45.3861 27.424 45.3861 27.136V17.368C45.3861 17.064 45.4581 16.84 45.6021 16.696C45.7461 16.552 45.9781 16.48 46.2981 16.48H47.5461C47.8661 16.48 48.0981 16.552 48.2421 16.696C48.3861 16.84 48.4581 17.064 48.4581 17.368V27.136C48.4581 27.424 48.3861 27.64 48.2421 27.784C48.1141 27.928 47.8821 28 47.5461 28H46.2981ZM59.0114 28.36C54.4674 28.36 52.1954 26.312 52.1954 22.216C52.1954 21.016 52.4274 19.96 52.8914 19.048C53.3554 18.12 54.0194 17.4 54.8834 16.888C55.7634 16.376 56.7954 16.12 57.9794 16.12C59.6594 16.12 60.8754 16.496 61.6274 17.248V12.568C61.6274 12.264 61.6994 12.04 61.8434 11.896C61.9874 11.752 62.2194 11.68 62.5394 11.68H63.7394C64.0594 11.68 64.2914 11.752 64.4354 11.896C64.5794 12.04 64.6514 12.264 64.6514 12.568V26.8C64.0434 27.248 63.2274 27.624 62.2034 27.928C61.1794 28.216 60.1154 28.36 59.0114 28.36ZM59.0834 26.176C60.1554 26.176 61.0034 25.984 61.6274 25.6V20.704C61.6274 19.92 61.3554 19.328 60.8114 18.928C60.2674 18.528 59.5634 18.328 58.6994 18.328C57.5314 18.328 56.6594 18.68 56.0834 19.384C55.5074 20.088 55.2194 21.056 55.2194 22.288C55.2194 23.664 55.5394 24.656 56.1794 25.264C56.8194 25.872 57.7874 26.176 59.0834 26.176ZM69.8879 14.488C69.5039 14.488 69.2079 14.376 68.9999 14.152C68.7919 13.928 68.6879 13.656 68.6879 13.336V12.832C68.6879 12.512 68.7919 12.24 68.9999 12.016C69.2079 11.792 69.5039 11.68 69.8879 11.68H70.9199C71.3039 11.68 71.5999 11.792 71.8079 12.016C72.0319 12.24 72.1439 12.512 72.1439 12.832V13.336C72.1439 13.656 72.0319 13.928 71.8079 14.152C71.5999 14.376 71.3039 14.488 70.9199 14.488H69.8879ZM69.7919 28C69.4719 28 69.2399 27.928 69.0959 27.784C68.9519 27.64 68.8799 27.424 68.8799 27.136V17.368C68.8799 17.064 68.9519 16.84 69.0959 16.696C69.2399 16.552 69.4719 16.48 69.7919 16.48H71.0399C71.3599 16.48 71.5919 16.552 71.7359 16.696C71.8799 16.84 71.9519 17.064 71.9519 17.368V27.136C71.9519 27.424 71.8799 27.64 71.7359 27.784C71.6079 27.928 71.3759 28 71.0399 28H69.7919Z" fill="#F5F5F5"/>
<path fill-rule="evenodd" clip-rule="evenodd" d="M12 10.5C17.2459 10.5 21.5 14.7531 21.5 20C21.5 25.2469 17.2459 29.5 12 29.5C6.75315 29.5 2.5 25.2469 2.5 20C2.5 14.7531 6.75315 10.5 12 10.5Z" stroke="white" stroke-width="1.5" stroke-linecap="round" stroke-linejoin="round"/>
<path fill-rule="evenodd" clip-rule="evenodd" d="M15 19.9951C15 19.184 10.8425 16.5891 10.3709 17.0557C9.8993 17.5223 9.85395 22.424 10.3709 22.9346C10.8879 23.4469 15 20.8063 15 19.9951Z" stroke="white" stroke-width="1.5" stroke-linecap="round" stroke-linejoin="round"/>
</svg>
